<?xml version="1.0" encoding="utf-8"?>
<!-- Generator: Adobe Illustrator 22.0.1, SVG Export Plug-In . SVG Version: 6.00 Build 0)  -->
<svg version="1.1" id="Layer_1" xmlns="http://www.w3.org/2000/svg" xmlns:xlink="http://www.w3.org/1999/xlink" x="0px" y="0px"
	 viewBox="0 0 120 120" style="enable-background:new 0 0 120 120;" xml:space="preserve">
<style type="text/css">
	.st0{fill:#C6C6C6;}
</style>
<g>
	<path class="st0" d="M59.4,67.6c-4.2,0-7.6-3.4-7.6-7.6s3.4-7.6,7.6-7.6c4.2,0,7.6,3.4,7.6,7.6S63.6,67.6,59.4,67.6z M59.4,53.9
		c-3.4,0-6.1,2.7-6.1,6.1S56,66,59.4,66c3.3,0,6.1-2.7,6.1-6.1S62.7,53.9,59.4,53.9z"/>
</g>
<g>
	<path class="st0" d="M57.2,63.4v-6.9l6.2,3.4L57.2,63.4z M58.5,58.6v2.7l2.4-1.3L58.5,58.6z"/>
</g>
</svg>
